<?xml version="1.0" encoding="iso-8859-1"?>
<!-- Generator: Adobe Illustrator 19.0.0, SVG Export Plug-In . SVG Version: 6.00 Build 0)  -->
<svg version="1.1" id="Capa_1" xmlns="http://www.w3.org/2000/svg" xmlns:xlink="http://www.w3.org/1999/xlink" x="0px" y="0px"
	 viewBox="0 0 512 512" style="enable-background:new 0 0 512 512;" xml:space="preserve">
<path style="fill:#EF999A;" d="M175.36,187.235L128.167,75.924l-72.8-55.63l-20.075,9.047
	c-7.881,53.75,58.744,167.443,125.129,208.675l8.657,2.015l9.91-11.64L175.36,187.235z"/>
<path style="fill:#78909C;" d="M35.293,29.343c50.772,7.273,93.011,74.321,133.785,198.901v11.787l25.812,6.009v-37.402
	C157.097,46.384,80.913-28.049,44.134,9.605c-4.682,4.793-7.52,11.303-8.754,19.109L35.293,29.343z"/>
<path style="fill:#EF999A;" d="M336.639,187.235l47.194-111.311l72.8-55.63l20.075,9.047
	c7.881,53.75-58.744,167.443-125.129,208.675l-8.657,2.015l-9.91-11.64L336.639,187.235z"/>
<path style="fill:#78909C;" d="M476.707,29.343c-50.772,7.273-93.011,74.321-133.785,198.901v11.787l-25.812,6.009v-37.402
	C354.902,46.384,431.086-28.049,467.865,9.605c4.682,4.793,7.52,11.303,8.754,19.109L476.707,29.343z"/>
<path style="fill:#B0BEC5;" d="M382.505,334.987C387.115,298.11,361.301,193.93,256,193.93S124.885,298.11,129.494,334.987
	C69.283,381.031,82.26,460.806,163.75,495.301l2.062,0.858h180.374l2.061-0.858C429.74,460.806,442.717,381.031,382.505,334.987z"/>
<ellipse cx="175.357" cy="328.247" rx="11.606" ry="18.224"/>
<ellipse cx="336.643" cy="328.247" rx="11.606" ry="18.224"/>
<path style="fill:#E0E0E0;" d="M286.723,380.598h-61.446c-35.853,13.725-61.547,50.786-61.547,94.359
	c0,7.276,0.723,14.368,2.083,21.203C190.036,506.046,220.124,512,256,512s65.964-5.952,90.187-15.84
	c1.361-6.835,2.083-13.927,2.083-21.203C348.27,431.383,322.576,394.322,286.723,380.598z"/>
<path style="opacity:0.1;enable-background:new    ;" d="M196.718,496.16l-2.062-0.858
	c-81.491-34.495-100.649-114.27-40.438-160.314c-4.375-35.001,24.848-130.616,117.235-140.257
	c-4.953-0.516-10.095-0.799-15.453-0.799c-105.301,0-131.115,104.179-126.506,141.056C69.283,381.031,82.26,460.806,163.75,495.301
	l2.062,0.858C190.036,506.046,220.124,512,256,512c5.282,0,10.422-0.144,15.453-0.396
	C242.313,510.147,217.375,504.591,196.718,496.16z"/>
<path style="fill:#212121;" d="M295.673,463.091c-17.616,0-31.948-14.332-31.948-31.948v-28.634c0-4.267-3.459-7.726-7.726-7.726
	c-4.267,0-7.726,3.459-7.726,7.726v28.634c0,17.616-14.332,31.948-31.947,31.948c-4.267,0-7.726,3.459-7.726,7.726
	c0,4.267,3.459,7.726,7.726,7.726c16.587,0,31.201-8.57,39.673-21.508c8.472,12.938,23.087,21.508,39.674,21.508
	c4.267,0,7.726-3.459,7.726-7.726C303.4,466.55,299.941,463.091,295.673,463.091z"/>
<path style="fill:#EF999A;" d="M256,374.91c-10.773,0-21.111,2.009-30.723,5.688c2.982,12.514,15.603,21.911,30.723,21.911
	s27.741-9.398,30.723-21.911C277.111,376.918,266.773,374.91,256,374.91z"/>
<g>
</g>
<g>
</g>
<g>
</g>
<g>
</g>
<g>
</g>
<g>
</g>
<g>
</g>
<g>
</g>
<g>
</g>
<g>
</g>
<g>
</g>
<g>
</g>
<g>
</g>
<g>
</g>
<g>
</g>
</svg>
